<svg width="130" height="130" viewBox="0 0 130 130" fill="none" xmlns="http://www.w3.org/2000/svg">
<circle cx="65" cy="65" r="62.5" stroke="#D6F1A0" stroke-width="5"/>
<path d="M79.3901 83.6461L93.7213 80.9125C94.6984 80.7261 95.3409 79.7893 95.172 78.8091C94.9283 77.3951 94.7607 76.1336 94.7486 75.2902C94.7067 72.3402 95.1953 69.2343 94.5644 65.9264C92.6687 55.988 86.0599 48.8979 79.8053 50.0909C73.5507 51.284 70.0165 60.3088 71.9122 70.2471C72.7822 74.8084 75.3942 78.1196 77.0128 81.6034C77.1177 81.8298 77.2207 82.1086 77.3211 82.4274C77.5958 83.2989 78.4925 83.8173 79.3901 83.6461Z" fill="#D6F1A0"/>
<path d="M78.6254 89.1158C78.8534 90.7372 78.9878 91.9519 78.9878 91.9519C80.2164 98.3932 85.3325 102.88 90.359 101.921C95.3854 100.962 98.4908 94.9075 97.262 88.4653C97.262 88.4653 96.979 87.3319 96.603 85.7049C96.3829 84.7526 95.4488 84.1412 94.4886 84.3244L80.0855 87.0724C79.1324 87.2542 78.4902 88.1549 78.6254 89.1158Z" fill="#D6F1A0"/>
<path d="M36.648 58.5939L50.8419 61.9684C51.8094 62.1985 52.779 61.6072 53.0265 60.644C53.3837 59.2542 53.7483 58.0346 54.0826 57.2601C55.2508 54.5512 56.9684 51.9177 57.7473 48.6415C60.0874 38.7983 56.963 29.6241 50.7675 28.1511C44.5712 26.678 37.6522 33.4644 35.3121 43.3076C34.238 47.8252 35.2651 51.9156 35.3151 55.7568C35.3182 56.0066 35.2982 56.3036 35.2594 56.6362C35.1536 57.5433 35.7595 58.3827 36.648 58.5939Z" fill="#D6F1A0"/>
<path d="M33.7089 63.2704C33.253 64.843 32.8782 66.0062 32.8782 66.0062C31.3615 72.3859 34.1917 78.5741 39.1692 79.7575C44.1467 80.9408 49.4616 76.6891 50.9785 70.3086C50.9785 70.3086 51.1836 69.1582 51.5064 67.5196C51.6952 66.5607 51.0934 65.6208 50.1426 65.3948L35.8778 62.0041C34.9337 61.7797 33.9791 62.3384 33.7089 63.2704Z" fill="#D6F1A0"/>
</svg>
