<svg width="130" height="130" viewBox="0 0 130 130" fill="none" xmlns="http://www.w3.org/2000/svg">
<circle cx="65" cy="65" r="62.5" stroke="#D6F1A0" stroke-width="5"/>
<g clip-path="url(#clip0_2066_8290)">
<path d="M70.1959 92.3882C71.5001 92.0346 72.3601 90.977 72.4402 89.6282C72.5203 88.2793 71.7917 87.1273 70.5386 86.6218L58.4669 81.7517C55.9776 80.7475 54.3799 78.5491 54.1929 75.8712C54.0062 73.1935 55.2831 70.7947 57.6089 69.4544L61.662 67.1186C64.3148 65.5899 65.6377 62.6627 65.0325 59.6616C65.0258 59.6284 62.6762 44.5367 62.673 44.5098L58.2238 50.8786L50.8691 54.4639C50.4078 54.6889 50.0356 55.0625 49.8124 55.5245L42.2603 71.1692L33.0048 76.7867C32.494 77.0967 32.125 77.5943 31.9768 78.173L26.0892 101.147C25.9138 101.831 26.0646 102.558 26.4974 103.116C26.9304 103.674 27.5969 104 28.303 104L33.5817 103.999L70.1029 92.4156C70.1337 92.4059 70.1648 92.3967 70.1959 92.3882Z" fill="#D6F1A0"/>
<path d="M103.805 100.826L94.3848 78.3206C94.2187 77.9239 93.944 77.5821 93.5924 77.3345L83.7067 70.3736L79.7884 60.2786C79.7033 60.0592 79.5846 59.8541 79.4368 59.6709L67.316 44.6431L69.5239 58.8103C70.4982 63.7505 68.3124 68.5615 63.945 71.0784L59.8917 73.4142C59.0933 73.8743 58.689 74.6339 58.7531 75.5532C58.8172 76.4724 59.3232 77.1686 60.1778 77.5132L72.2495 82.3833C75.3346 83.628 77.2007 86.5783 77.0034 89.8992C76.8069 93.2029 74.6265 95.9003 71.4432 96.7853L48.7031 103.998L101.697 103.994C102.462 103.994 103.176 103.611 103.599 102.974C104.023 102.338 104.1 101.532 103.805 100.826Z" fill="#D6F1A0"/>
<path d="M67.2676 39.7109H75.6466C76.405 39.7109 77.1139 39.3348 77.5389 38.7068C77.9641 38.0789 78.0499 37.2811 77.7683 36.5771L76.2795 32.8555L77.7682 29.1339C78.0499 28.4297 77.9639 27.6319 77.5387 27.0041C77.1139 26.3761 76.4049 26 75.6466 26H64.9824C63.7204 26 62.6973 27.0231 62.6973 28.2852V41.9507H67.2676V39.7109Z" fill="#D6F1A0"/>
</g>
<defs>
<clipPath id="clip0_2066_8290">
<rect width="78" height="78" fill="white" transform="translate(26 26)"/>
</clipPath>
</defs>
</svg>
