<svg width="130" height="130" viewBox="0 0 130 130" fill="none" xmlns="http://www.w3.org/2000/svg">
<circle cx="65" cy="65" r="62.5" stroke="#FFFF4B" stroke-width="5"/>
<g clip-path="url(#clip0_2066_8291)">
<path d="M92.9032 56.8182L80.3765 69.3464C76.2984 73.4245 70.7669 75.7151 65.0001 75.7151C70.7395 75.7151 75.4002 71.0546 75.4002 65.3151C74.8842 51.5357 55.1139 51.5394 54.6002 65.3152C54.6002 71.0546 59.2607 75.7151 65.0003 75.7151C59.2334 75.7151 53.702 73.4245 49.6239 69.3464L37.0968 56.8182C34.5579 54.2806 30.4422 54.2806 27.9032 56.8182C25.3656 59.3572 25.3656 63.4729 27.9032 66.0119L39.3535 77.461C45.7861 83.8934 49.4001 92.6176 49.4001 101.715C49.4001 102.977 50.4233 104 51.6853 104H78.315C79.577 104 80.6001 102.977 80.6001 101.715C80.6001 92.6176 84.2142 83.8934 90.6466 77.461L102.097 66.0119C104.635 63.4729 104.635 59.3572 102.097 56.8182C99.5581 54.2806 95.4422 54.2806 92.9032 56.8182Z" fill="#FFFF4B"/>
<path d="M50.3145 40.686C49.0524 40.686 48.0293 41.7092 48.0293 42.9712C48.0293 45.6073 50.3522 46.7688 51.7402 47.4627C52.1048 47.6449 52.6802 47.9327 52.9399 48.1321C53.3444 50.9535 57.4131 50.7354 57.495 47.8665C57.3578 44.5106 54.4558 43.9314 52.5845 42.7057C52.4528 41.5686 51.4867 40.686 50.3145 40.686Z" fill="#FFFF4B"/>
<path d="M93.3496 32.7767C93.7142 32.9589 94.2897 33.2467 94.5493 33.4461C94.9538 36.2675 99.0224 36.0492 99.1042 33.1804C98.967 29.8246 96.065 29.2454 94.1937 28.0196C94.0623 26.8827 93.0961 26 91.9238 26C90.6618 26 89.6387 27.0231 89.6387 28.2852C89.6387 30.9213 91.9616 32.0828 93.3496 32.7767Z" fill="#FFFF4B"/>
<path d="M28.2852 45.2561C29.5472 45.2561 30.5703 44.2329 30.5703 42.9709C30.5703 42.5474 32.137 41.7642 32.9787 41.3433C35.0613 40.302 37.9133 38.8761 37.9133 35.6279C37.9133 34.3659 36.8901 33.3428 35.6281 33.3428C34.3661 33.3428 33.343 34.3659 33.343 35.6279C33.343 36.0513 31.7764 36.8346 30.9347 37.2554C28.8522 38.2967 26 39.7228 26 42.9709C26 44.2329 27.0231 45.2561 28.2852 45.2561Z" fill="#FFFF4B"/>
<path d="M77.2383 50.1516C78.5003 50.1516 79.5234 49.1284 79.5234 47.8664C79.5234 47.4429 81.09 46.6597 81.9318 46.2388C84.0144 45.1975 86.8666 43.7714 86.8666 40.5234C86.8666 39.2614 85.8434 38.2383 84.5814 38.2383C83.3194 38.2383 82.2962 39.2614 82.2962 40.5234C82.2962 40.9468 80.7297 41.7302 79.888 42.1509C77.8053 43.1922 74.9531 44.6183 74.9531 47.8664C74.9531 49.1284 75.9763 50.1516 77.2383 50.1516Z" fill="#FFFF4B"/>
<path d="M48.069 31.5529C48.1114 31.5741 48.1603 31.5986 48.2098 31.6236C48.557 32.4431 49.3688 33.018 50.3147 33.018C51.5768 33.018 52.5999 31.9949 52.5999 30.7329C52.5999 28.7085 50.8571 27.8373 50.1129 27.4651C50.0705 27.4439 50.0215 27.4194 49.9721 27.3944C49.6249 26.5748 48.8132 26 47.8672 26C46.6052 26 45.582 27.0231 45.582 28.2852C45.582 30.3093 47.3248 31.1808 48.069 31.5529Z" fill="#FFFF4B"/>
<path d="M96.9824 47.8662C97.021 49.9965 98.7548 50.761 99.6102 51.2048C99.9574 52.0242 100.769 52.599 101.715 52.599C102.977 52.599 104 51.5759 104 50.3139C104 48.2897 102.258 47.4183 101.513 47.0461C101.471 47.0249 101.422 47.0005 101.373 46.9754C100.399 44.7177 97.0097 45.372 96.9824 47.8662Z" fill="#FFFF4B"/>
<path d="M69.8965 35.4656C70.8425 35.4656 71.6542 34.8908 72.0014 34.0714C72.0509 34.0462 72.0998 34.0219 72.1422 34.0007C72.8865 33.6287 74.6292 32.7571 74.6292 30.7329C74.6292 29.4709 73.6061 28.4478 72.344 28.4478C71.398 28.4478 70.5863 29.0225 70.2391 29.842C70.1896 29.8671 70.1407 29.8915 70.0983 29.9127C69.354 30.2847 67.6113 31.1563 67.6113 33.1805C67.6113 34.4425 68.6345 35.4656 69.8965 35.4656Z" fill="#FFFF4B"/>
</g>
<defs>
<clipPath id="clip0_2066_8291">
<rect width="78" height="78" fill="white" transform="translate(26 26)"/>
</clipPath>
</defs>
</svg>
